<?xml version="1.0" encoding="utf-8"?>
<!-- Generator: Adobe Illustrator 23.0.0, SVG Export Plug-In . SVG Version: 6.00 Build 0)  -->
<svg version="1.1" id="Layer_1" xmlns="http://www.w3.org/2000/svg" xmlns:xlink="http://www.w3.org/1999/xlink" x="0px" y="0px"
	 viewBox="0 0 56 56" style="enable-background:new 0 0 56 56;" xml:space="preserve">
<style type="text/css">
	.st0{fill:#3D58A6;}
	.st1{fill:url(#SVGID_1_);}
	.st2{fill:url(#SVGID_2_);}
	.st3{fill:#FFFFFF;}
	.st4{font-family:'BPGNinoMtavruli';}
	.st5{font-size:48px;}
</style>
<rect class="st0" width="56" height="56"/>
<g>
	<g>
		<linearGradient id="SVGID_1_" gradientUnits="userSpaceOnUse" x1="5.0513" y1="30.6768" x2="78.2363" y2="30.6768">
			<stop  offset="0" style="stop-color:#FFFFFF"/>
			<stop  offset="1" style="stop-color:#000000"/>
		</linearGradient>
		<path class="st1" d="M6.2,43.74v-2.86l15.7-16.48c0.7-0.7,1.22-1.45,1.56-2.25s0.5-1.62,0.5-2.46c0-0.8-0.12-1.55-0.35-2.27
			s-0.6-1.37-1.1-1.95c-0.75-0.88-1.63-1.5-2.65-1.88s-2.11-0.56-3.28-0.56c-2.47,0-4.44,0.8-5.91,2.39
			c-0.55,0.59-0.99,1.28-1.32,2.06s-0.55,1.55-0.64,2.3H6.29c0.05-1.72,0.84-3.65,2.37-5.79c1.56-2.34,4.2-3.52,7.92-3.52
			c0.67,0,1.38,0.06,2.13,0.18s1.48,0.29,2.18,0.52s1.36,0.51,1.98,0.84s1.14,0.72,1.56,1.16c0.44,0.39,0.81,0.85,1.13,1.37
			s0.57,1.09,0.77,1.7s0.36,1.25,0.46,1.91s0.15,1.34,0.15,2.03c0,1.22-0.24,2.34-0.73,3.35s-1.17,1.96-2.06,2.84L9.36,41.17h17.58
			v2.58H6.2z"/>
		<linearGradient id="SVGID_2_" gradientUnits="userSpaceOnUse" x1="5.0513" y1="30.6768" x2="78.2363" y2="30.6768">
			<stop  offset="0" style="stop-color:#FFFFFF"/>
			<stop  offset="1" style="stop-color:#000000"/>
		</linearGradient>
		<path class="st2" d="M29.73,43.74L46.63,14H28.77v-2.55h20.72v2.98L32.75,43.74H29.73z"/>
	</g>
	<text transform="matrix(1 0 0 1 5.0511 47.3525)" class="st3 st4 st5">27</text>
</g>
</svg>
