<?xml version="1.0" encoding="utf-8"?>
<!-- Generator: Adobe Illustrator 23.0.0, SVG Export Plug-In . SVG Version: 6.00 Build 0)  -->
<svg version="1.1" id="Layer_1" xmlns="http://www.w3.org/2000/svg" xmlns:xlink="http://www.w3.org/1999/xlink" x="0px" y="0px"
	 viewBox="0 0 56 56" style="enable-background:new 0 0 56 56;" xml:space="preserve">
<style type="text/css">
	.st0{fill:#3D58A6;}
	.st1{fill:url(#SVGID_1_);}
	.st2{fill:url(#SVGID_2_);}
	.st3{fill:#FFFFFF;}
	.st4{font-family:'BPGNinoMtavruli';}
	.st5{font-size:48.5924px;}
</style>
<rect class="st0" width="56" height="56"/>
<g>
	<g>
		<linearGradient id="SVGID_1_" gradientUnits="userSpaceOnUse" x1="-26.4797" y1="32.2475" x2="-0.1526" y2="31.5666">
			<stop  offset="0" style="stop-color:#FFFFFF"/>
			<stop  offset="1" style="stop-color:#000000"/>
		</linearGradient>
		<path class="st1" d="M6.15,43.71v-2.89l15.74-16.68c0.7-0.71,1.23-1.47,1.56-2.28c0.34-0.81,0.5-1.64,0.5-2.49
			c0-0.81-0.12-1.57-0.35-2.3s-0.6-1.38-1.1-1.97c-0.75-0.89-1.64-1.52-2.65-1.9c-1.02-0.38-2.11-0.57-3.29-0.57
			c-2.47,0-4.45,0.81-5.92,2.42c-0.55,0.6-0.99,1.3-1.33,2.09c-0.34,0.79-0.55,1.57-0.65,2.33H6.24c0.05-1.74,0.84-3.69,2.37-5.86
			c1.57-2.37,4.21-3.56,7.94-3.56c0.67,0,1.39,0.06,2.14,0.18c0.75,0.12,1.48,0.29,2.18,0.52s1.37,0.51,1.98,0.85
			c0.62,0.34,1.14,0.73,1.56,1.17c0.44,0.4,0.81,0.86,1.13,1.39c0.31,0.53,0.57,1.1,0.78,1.72c0.2,0.62,0.36,1.26,0.46,1.93
			c0.1,0.67,0.15,1.36,0.15,2.05c0,1.23-0.24,2.37-0.73,3.39c-0.49,1.03-1.17,1.99-2.07,2.87L9.32,41.1h17.62v2.61H6.15z"/>
		<linearGradient id="SVGID_2_" gradientUnits="userSpaceOnUse" x1="-26.4797" y1="32.2475" x2="-0.1526" y2="31.5666">
			<stop  offset="0" style="stop-color:#FFFFFF"/>
			<stop  offset="1" style="stop-color:#000000"/>
		</linearGradient>
		<path class="st2" d="M39.65,43.71c-1.57,0-2.96-0.22-4.19-0.65c-1.23-0.43-2.35-1.12-3.37-2.05c-0.94-0.89-1.65-1.85-2.13-2.88
			s-0.72-2.2-0.72-3.5c0-3.61,1.71-6.3,5.14-8.07c-1.33-1.09-2.35-2.26-3.04-3.51c-0.7-1.25-1.05-2.57-1.05-3.96
			c0-1.53,0.21-2.85,0.63-3.94c0.42-1.09,1.08-2.03,1.97-2.82c0.89-0.76,1.89-1.33,3-1.71c1.1-0.38,2.38-0.57,3.84-0.57
			c1.27,0,2.43,0.2,3.49,0.6s2.06,0.99,2.99,1.77c0.97,0.81,1.67,1.75,2.1,2.84c0.43,1.08,0.65,2.36,0.65,3.83
			c0,1.53-0.34,2.91-1.03,4.14c-0.69,1.23-1.72,2.34-3.1,3.33c3.46,1.8,5.19,4.49,5.19,8.07c0,1.3-0.24,2.46-0.72,3.5
			c-0.48,1.04-1.2,2-2.17,2.88c-0.97,0.87-2.07,1.54-3.3,2C42.61,43.48,41.21,43.71,39.65,43.71z M39.65,41.1
			c1.21,0,2.29-0.13,3.26-0.4s1.8-0.68,2.48-1.22c0.68-0.55,1.21-1.22,1.57-2.03c0.37-0.81,0.55-1.75,0.55-2.82
			c0-1.08-0.16-2.02-0.47-2.85c-0.31-0.82-0.81-1.5-1.5-2.04c-0.66-0.51-1.47-0.89-2.43-1.16c-0.96-0.27-2.12-0.4-3.46-0.4
			c-1.39,0-2.59,0.11-3.58,0.34c-0.99,0.23-1.81,0.6-2.44,1.12c-0.63,0.51-1.1,1.18-1.41,2c-0.31,0.82-0.46,1.82-0.46,2.99
			c0,2.31,0.74,3.96,2.21,4.96C35.39,40.6,37.28,41.1,39.65,41.1z M39.65,25.59c2.04,0,3.66-0.59,4.89-1.78
			c0.61-0.58,1.08-1.28,1.42-2.09c0.34-0.81,0.51-1.68,0.51-2.63c0-0.85-0.14-1.65-0.41-2.37c-0.27-0.73-0.71-1.42-1.3-2.09
			c-1.17-1.33-2.87-1.99-5.1-1.99c-1.14,0-2.13,0.17-2.95,0.5s-1.51,0.8-2.06,1.4c-0.61,0.6-1.07,1.29-1.37,2.06
			c-0.31,0.77-0.46,1.61-0.46,2.49c0,0.95,0.14,1.8,0.41,2.54c0.27,0.74,0.68,1.42,1.21,2.04c0.58,0.63,1.3,1.11,2.15,1.44
			C37.43,25.42,38.46,25.59,39.65,25.59z"/>
	</g>
	<text transform="matrix(0.99 0 0 1 4.9995 47.3672)" class="st3 st4 st5">28</text>
</g>
</svg>
